<?xml version="1.0" encoding="UTF-8" standalone="no" ?>
<!DOCTYPE svg PUBLIC "-//W3C//DTD SVG 1.1//EN" "http://www.w3.org/Graphics/SVG/1.1/DTD/svg11.dtd">
<svg xmlns="http://www.w3.org/2000/svg" xmlns:xlink="http://www.w3.org/1999/xlink" version="1.1" width="1280" height="1024" viewBox="0 0 1280 1024" xml:space="preserve">
<desc>Created with Fabric.js 3.6.3</desc>
<defs>
</defs>
<g transform="matrix(1.9692780337941629 0 0 1.9692780337941629 640.0153846153846 512.012312418764)" id="background-logo"  >
<rect style="stroke: none; stroke-width: 1; stroke-dasharray: none; stroke-linecap: butt; stroke-dashoffset: 0; stroke-linejoin: miter; stroke-miterlimit: 4; fill: rgb(255,255,255); fill-rule: nonzero; opacity: 1;"  paint-order="stroke"  x="-325" y="-260" rx="0" ry="0" width="650" height="520" />
</g>
<g transform="matrix(2.5562333312536962 0 0 2.5562333312536962 640.0153846153846 391.1778842746391)" id="logo-logo"  >
<g style=""  paint-order="stroke"   >
		<g transform="matrix(1.6677919421851892 0 0 -1.6677919421851894 2.7290958039349675 2.251519121949997)"  >
<path style="stroke: none; stroke-width: 1; stroke-dasharray: none; stroke-linecap: butt; stroke-dashoffset: 0; stroke-linejoin: miter; stroke-miterlimit: 4; fill: rgb(250,86,149); fill-rule: nonzero; opacity: 1;"  paint-order="stroke"  transform=" translate(-164.13574892840484, -128.65049749072475)" d="M 165.941 196.471 C 169.061 193.573 177.242 188.865 179 185 v 0 c 1.732 -3.862 5.935 -6.257 5.117 -9.353 v 0 c -1.307 -4.881 -6.874 2.414 -10.279 2.824 v 0 c -0.436 0.052 0.557 -3.277 1.532 -6.605 v 0 c 1.073 -3.66 2.127 -7.319 1.243 -6.486 v 0 c 3.69 -3.592 5.993 -8.743 5.993 -14.464 v 0 c 0 -10.874 -8.298 -19.665 -18.575 -19.665 v 0 c -10.252 0 -18.575 8.791 -18.575 19.665 v 0 c 0 10.848 8.323 19.639 18.575 19.639 v 0 c 4.509 0 8.619 -1.683 11.84 -4.483 v 0 c -1.321 1.254 -1.842 11.153 -3.223 13.222 v 0 c -6.997 10.473 -15.533 20.829 -23.06 23 v 0 c -9.287 2.676 -26.742 -11.718 -30.235 -18.529 v 0 c -3.616 -7.01 -3.584 -17.877 0.353 -28.824 v 0 c 3.913 -10.946 2.777 -7.26 -2.177 -5.824 v 0 c -4.952 1.437 -9.383 -5.925 -9.705 -13.059 v 0 c -0.322 -7.131 5.898 -17.859 12.412 -28.088 v 0 c 6.513 -10.203 4.829 -5.312 1.411 -10.587 v 0 c -2.949 -4.595 -12.903 8.918 -15.794 10.5 v 0 c -0.205 0.111 2.221 -6.791 4.66 -13.691 v 0 c 2.505 -7.089 5.025 -14.178 4.727 -13.665 v 0 c 5.151 -10.229 11.716 -18.823 19.393 -24.495 v 0 c 18.821 -13.918 35.987 -3.12 35.987 9.264 v 0 c 0 9.634 -5.846 18.426 -11.888 28.432 v 0 c -0.277 0.471 2.796 0.392 5.725 0.314 v 0 c 2.567 -0.069 5.022 -0.138 5.014 0.164 v 0 c -0.191 6.748 13.196 3.305 16 8.323 v 0 c 2.004 3.541 6.077 9.991 10.558 9.324 v 0 c 1.419 -0.209 2.183 1.585 2.978 3.379 v 0 c 0.912 2.057 1.867 4.115 3.905 3.15 v 0 c 8.695 -4.138 1.468 0.044 4.588 6.706 v 0 c 2.501 5.398 0.359 8.215 4.323 12.176 v 0 c 6.761 6.763 12.788 6.37 9.84 24.846 v 0 c -2.997 17.238 -13.547 31.899 -28.133 40.421 v 0 c -0.027 0 -0.052 0.024 -0.076 0.024 v 0 c -7.017 3.785 -13.224 5.25 -18.133 5.25 v 0 c -10.204 -0.001 -14.798 -6.334 -9.38 -11.334" stroke-linecap="round" />
</g>
		<g transform="matrix(1.6677919421851892 0 0 -1.6677919421851894 40.17193392128388 3.678310943540339)"  >
<path style="stroke: none; stroke-width: 1; stroke-dasharray: none; stroke-linecap: butt; stroke-dashoffset: 0; stroke-linejoin: miter; stroke-miterlimit: 4; fill: rgb(255,190,88); fill-rule: nonzero; opacity: 1;"  paint-order="stroke"  transform=" translate(-186.5862939695868, -127.79500000000002)" d="m 198.26 139.919 c -3.964 -3.962 -2.602 -10.379 -5.103 -15.777 v 0 c -3.12 -6.661 -12.531 -8.323 -21.226 -4.184 v 0 c -3.815 1.807 -7.007 3.49 -10.054 3.938 v 0 c -4.482 0.667 -8.225 -0.87 -10.229 -4.409 v 0 c -3.072 -5.498 1.139 -15.628 7.084 -25.759 v 0 c 1.758 -0.148 3.517 -0.248 5.299 -0.248 v 0 c 32.32 0 58.525 26.205 58.525 58.5 v 0 c 0 3.443 -0.298 6.836 -0.893 10.13 v 0 c 2.948 -18.476 -16.642 -15.429 -23.403 -22.191" stroke-linecap="round" />
</g>
		<g transform="matrix(1.6677919421851892 0 0 -1.6677919421851894 32.842331951242954 39.064686476854604)"  >
<path style="stroke: none; stroke-width: 1; stroke-dasharray: none; stroke-linecap: butt; stroke-dashoffset: 0; stroke-linejoin: miter; stroke-miterlimit: 4; fill: rgb(55,182,255); fill-rule: nonzero; opacity: 1;"  paint-order="stroke"  transform=" translate(-182.1915, -106.57750000000001)" d="m 212.213 118.79 c 0.203 0.288 0.402 0.582 0.6 0.885 v 0 c -0.197 -0.297 -0.397 -0.593 -0.6 -0.885 m -38.427 -8.857 c -9.584 1.864 -17.99 3.728 -22.216 -0.76 v 0 c 1.347 -4.687 4.003 -10.061 7.162 -15.445 v 0 c 1.758 -0.148 3.517 -0.248 5.299 -0.248 v 0 c 19.984 0 37.626 10.026 48.182 25.31 v 0 c -9.822 -13.985 -25.239 -11.422 -38.427 -8.857" stroke-linecap="round" />
</g>
		<g transform="matrix(1.6677919421851892 0 0 -1.6677919421851894 8.555059378110684 -94.71292397673034)"  >
<path style="stroke: none; stroke-width: 1; stroke-dasharray: none; stroke-linecap: butt; stroke-dashoffset: 0; stroke-linejoin: miter; stroke-miterlimit: 4; fill: rgb(255,222,89); fill-rule: nonzero; opacity: 1;"  paint-order="stroke"  transform=" translate(-167.62896857218269, -186.78990963564416)" d="m 147.384 208.118 c -21.325 -8.647 16.676 -21.332 23.028 -31.471 v 0 c 5.103 -8.146 18.235 -22.118 23.773 -6.515 v 0 c 0.358 2.97 -0.063 6.756 -1.498 9.958 v 0 c -1.757 3.865 -4.979 6.886 -8.099 9.784 v 0 c -8.025 7.406 -0.247 16.94 8.866 12.681 v 0 c -8.643 5.052 -18.698 7.95 -29.423 7.95 v 0 c -5.782 0 -11.355 -0.827 -16.647 -2.387" stroke-linecap="round" />
</g>
		<g transform="matrix(1.6677919421851892 0 0 -1.6677919421851894 -23.65846259586806 -19.174068159745246)"  >
<linearGradient id="SVGID_34291" gradientUnits="userSpaceOnUse" gradientTransform="matrix(1 0 0 1 102.44279250921193 74.87635245579105)"  x1="0" y1="0" x2="0" y2="133">
<stop offset="0%" style="stop-color:rgb(91,36,122);stop-opacity: 1"/>
<stop offset="100%" style="stop-color:rgb(27,206,223);stop-opacity: 1"/>
</linearGradient>
<path style="stroke: none; stroke-width: 1; stroke-dasharray: none; stroke-linecap: butt; stroke-dashoffset: 0; stroke-linejoin: miter; stroke-miterlimit: 4; fill: url(#SVGID_34291); fill-rule: nonzero; opacity: 1;"  paint-order="stroke"  transform=" translate(-148.31389625460596, -141.49717622789552)" d="M 112.366 179.372 C 97.208 152.873 100.43 110 115.165 80.653 v 0 c 0.026 -0.052 0.051 -0.076 0.075 -0.126 v 0 c 4.731 -8.099 14.463 -6.539 17.833 -1.287 v 0 c 3.417 5.274 4.358 14.24 -2.155 24.445 v 0 c -6.514 10.228 -18.898 23.529 -18.576 30.662 v 0 c 0.322 7.132 7.629 6.39 12.582 4.953 v 0 c 4.953 -1.437 8.47 2.056 4.557 13.002 v 0 c -3.937 10.947 -6.712 21.275 -3.096 28.284 v 0 c 3.492 6.811 10.923 10.923 20.211 8.247 v 0 c 9.013 -2.6 21.274 -15.157 29.275 -22.761 v 0 c 0.246 -0.223 0.493 -0.469 0.742 -0.692 v 0 c 7.975 -7.505 15.603 -3.171 17.262 3.021 v 0 c 0.141 0.53 0.234 1.119 0.31 1.731 v 0 c -4.455 -4.588 -11.658 -0.413 -16.761 7.733 v 0 c -6.352 10.139 -15.896 26.365 -30.04 30.253 v 0 c -14.358 -4.236 -26.603 -14.053 -35.018 -28.746" stroke-linecap="round" />
</g>
		<g transform="matrix(1.6677919421851892 0 0 -1.6677919421851894 -67.97070684130614 -9.972566103245441)"  >
<path style="stroke: none; stroke-width: 1; stroke-dasharray: none; stroke-linecap: butt; stroke-dashoffset: 0; stroke-linejoin: miter; stroke-miterlimit: 4; fill: rgb(84,84,85); fill-rule: nonzero; opacity: 1;"  paint-order="stroke"  transform=" translate(-121.74448844982969, -135.98000000000002)" d="m 124.924 139.3 c -4.953 1.437 -12.26 2.179 -12.582 -4.953 v 0 c -0.051 -1.137 0.249 -2.444 0.767 -3.856 v 0 c 2.044 3.8 7.728 3.1 11.815 1.912 v 0 c 4.301 -1.247 7.513 1.23 5.723 9.066 v 0 c -0.948 -2.307 -3.132 -2.921 -5.723 -2.169" stroke-linecap="round" />
</g>
		<g transform="matrix(1.6677919421851892 0 0 -1.6677919421851894 -20.360102221090358 -79.82886549764308)"  >
<path style="stroke: none; stroke-width: 1; stroke-dasharray: none; stroke-linecap: butt; stroke-dashoffset: 0; stroke-linejoin: miter; stroke-miterlimit: 4; fill: rgb(84,84,85); fill-rule: nonzero; opacity: 1;"  paint-order="stroke"  transform=" translate(-150.29157721788965, -177.86549999999997)" d="m 126.385 180.586 c -1.659 -3.217 -1.964 -7.137 -1.437 -11.49 v 0 c 0.254 1.648 0.711 3.189 1.437 4.594 v 0 c 3.492 6.811 10.923 10.923 20.211 8.248 v 0 c 5.139 -1.483 11.331 -6.204 17.191 -11.394 v 0 c 0.082 0 0.162 0.011 0.244 0.011 v 0 c 4.509 0 8.619 -1.683 11.84 -4.483 v 0 c -8.001 7.604 -20.262 20.161 -29.275 22.761 v 0 c -1.954 0.563 -3.827 0.826 -5.598 0.826 v 0 c -6.644 0 -11.855 -3.695 -14.613 -9.073" stroke-linecap="round" />
</g>
		<g transform="matrix(1.6677919421851892 0 0 -1.6677919421851894 -61.73916756671326 88.85318167524827)"  >
<path style="stroke: none; stroke-width: 1; stroke-dasharray: none; stroke-linecap: butt; stroke-dashoffset: 0; stroke-linejoin: miter; stroke-miterlimit: 4; fill: rgb(255,190,88); fill-rule: nonzero; opacity: 1;"  paint-order="stroke"  transform=" translate(-125.48088932632521, -76.72455855146448)" d="m 133.073 79.24 c -3.37 -5.252 -13.102 -6.812 -17.833 1.287 v 0 c 2.259 -4.488 4.806 -8.633 7.582 -12.38 v 0 c 4.075 -0.686 8.267 1.103 10.251 4.197 v 0 c 2.07 3.195 3.217 7.747 2.365 13.104 v 0 c -0.418 -2.4 -1.258 -4.501 -2.365 -6.208" stroke-linecap="round" />
</g>
		<g transform="matrix(1.6677919421851892 0 0 -1.6677919421851894 38.30192292337284 -52.892445078357724)"  >
<path style="stroke: none; stroke-width: 1; stroke-dasharray: none; stroke-linecap: butt; stroke-dashoffset: 0; stroke-linejoin: miter; stroke-miterlimit: 4; fill: rgb(84,84,85); fill-rule: nonzero; opacity: 1;"  paint-order="stroke"  transform=" translate(-185.4650443996549, -161.71455230805196)" d="m 193.875 168.401 c -1.659 -6.192 -9.287 -10.526 -17.262 -3.021 v 0 c 2.785 -2.711 4.777 -6.31 5.588 -10.371 v 0 c 5.696 -1.832 10.412 1.787 11.674 6.496 v 0 c 0.53 2.008 0.602 4.701 0.115 7.4 v 0 c -0.037 -0.168 -0.071 -0.345 -0.115 -0.504" stroke-linecap="round" />
</g>
</g>
</g>
<g transform="matrix(1.9692780337941629 0 0 1.9692780337941629 649.4553567531364 872.6858422431942)" id="text-logo-path"  >
<filter id="SVGID_34292" y="-22.871912693854107%" height="145.74382538770823%" x="-20.370089376584446%" width="140.7401787531689%" >
	<feGaussianBlur in="SourceAlpha" stdDeviation="0"></feGaussianBlur>
	<feOffset dx="2" dy="2" result="oBlur" ></feOffset>
	<feFlood flood-color="rgb(84,84,85)" flood-opacity="1"/>
	<feComposite in2="oBlur" operator="in" />
	<feMerge>
		<feMergeNode></feMergeNode>
		<feMergeNode in="SourceGraphic"></feMergeNode>
	</feMerge>
</filter>
<path style="stroke: rgb(255,145,77); stroke-width: 0; stroke-dasharray: none; stroke-linecap: butt; stroke-dashoffset: 0; stroke-linejoin: miter; stroke-miterlimit: 4; fill: rgb(248,77,158); fill-rule: nonzero; opacity: 1;filter: url(#SVGID_34292);"  paint-order="stroke"  transform=" translate(-273.88500000000005, 33.720000000000006)" d="M 53.45 -53.82 Q 55.84 -48.94 55.84 -42.96 Q 55.84 -36.98 53.45 -32.15 Q 51.06 -27.32 47.29 -24.47 L 47.29 -24.47 Q 39.65 -18.58 31.46 -18.58 L 31.46 -18.58 L 19.96 -18.58 L 19.96 -8.19 Q 19.96 -6.07 19.83 -5.01 Q 19.69 -3.96 18.95 -2.58 L 18.95 -2.58 Q 17.66 -0.09 11.78 -0.09 L 11.78 -0.09 Q 5.34 -0.09 4.23 -3.5 L 4.23 -3.5 Q 3.68 -5.06 3.68 -8.28 L 3.68 -8.28 L 3.68 -59.34 Q 3.68 -61.46 3.82 -62.51 Q 3.96 -63.57 4.69 -64.95 L 4.69 -64.95 Q 5.98 -67.44 11.87 -67.44 L 11.87 -67.44 L 31.56 -67.44 Q 39.65 -67.44 47.29 -61.55 L 47.29 -61.55 Q 51.06 -58.7 53.45 -53.82 Z M 31.56 -34.87 Q 34.32 -34.87 36.98 -36.89 Q 39.65 -38.92 39.65 -42.96 Q 39.65 -47.01 36.98 -49.08 Q 34.32 -51.15 31.46 -51.15 L 31.46 -51.15 L 19.96 -51.15 L 19.96 -34.87 L 31.56 -34.87 Z M 116.75 -68.26 L 116.75 -68.26 Q 130.36 -68.26 140.39 -58.42 Q 150.42 -48.58 150.42 -33.99 Q 150.42 -19.41 140.85 -9.15 Q 131.28 1.1 117.3 1.1 Q 103.32 1.1 93.52 -9.02 Q 83.72 -19.14 83.72 -33.12 L 83.72 -33.12 Q 83.72 -40.76 86.48 -47.43 Q 89.24 -54.1 93.84 -58.6 Q 98.44 -63.11 104.42 -65.69 Q 110.4 -68.26 116.75 -68.26 Z M 100 -33.58 Q 100 -25.39 105.29 -20.29 Q 110.58 -15.18 117.12 -15.18 Q 123.65 -15.18 128.89 -20.15 Q 134.14 -25.12 134.14 -33.49 Q 134.14 -41.86 128.85 -46.92 Q 123.56 -51.98 117.02 -51.98 Q 110.49 -51.98 105.25 -46.87 Q 100 -41.77 100 -33.58 Z M 223.24 -64.63 Q 224.11 -66.24 225.86 -66.79 Q 227.61 -67.34 230.23 -67.34 Q 232.85 -67.34 234.46 -66.88 Q 236.07 -66.42 236.85 -65.78 Q 237.64 -65.14 238 -63.85 L 238 -63.85 Q 238.56 -62.38 238.56 -59.16 L 238.56 -59.16 L 238.56 -8.1 Q 238.56 -5.89 238.42 -4.88 Q 238.28 -3.86 237.54 -2.48 L 237.54 -2.48 Q 236.26 0 230.37 0 L 230.37 0 Q 226.78 0 225.4 -0.55 Q 224.02 -1.1 223.1 -2.3 L 223.1 -2.3 Q 202.4 -29.9 195.87 -38.36 L 195.87 -38.36 L 195.87 -8.1 Q 195.87 -5.89 195.73 -4.88 Q 195.59 -3.86 194.86 -2.48 L 194.86 -2.48 Q 193.57 0 187.68 0 L 187.68 0 Q 181.98 0 180.69 -2.48 L 180.69 -2.48 Q 179.95 -3.86 179.81 -4.97 Q 179.68 -6.07 179.68 -8.19 L 179.68 -8.19 L 179.68 -59.52 Q 179.68 -63.02 180.55 -64.63 Q 181.42 -66.24 183.17 -66.79 Q 184.92 -67.34 187.68 -67.34 Q 190.44 -67.34 192.05 -66.84 Q 193.66 -66.33 194.3 -65.69 L 194.3 -65.69 Q 194.67 -65.41 196.42 -63.3 L 196.42 -63.3 Q 215.83 -36.89 222.36 -28.43 L 222.36 -28.43 L 222.36 -59.52 Q 222.36 -63.02 223.24 -64.63 Z M 277.38 -67.53 L 277.38 -67.53 L 294.4 -67.44 Q 307.74 -67.44 317.86 -57.82 Q 327.98 -48.21 327.98 -34.18 Q 327.98 -20.15 318.09 -10.12 Q 308.2 -0.09 294.12 -0.09 L 294.12 -0.09 L 277.29 -0.09 Q 271.68 -0.09 270.3 -2.39 L 270.3 -2.39 Q 269.19 -4.32 269.19 -8.28 L 269.19 -8.28 L 269.19 -59.43 Q 269.19 -61.64 269.33 -62.65 Q 269.47 -63.66 270.2 -65.04 L 270.2 -65.04 Q 271.49 -67.53 277.38 -67.53 Z M 294.4 -16.38 Q 301.02 -16.38 306.36 -21.3 Q 311.7 -26.22 311.7 -33.67 Q 311.7 -41.12 306.5 -46.14 Q 301.3 -51.15 294.31 -51.15 L 294.31 -51.15 L 285.48 -51.15 L 285.48 -16.38 L 294.4 -16.38 Z M 396.15 -62.65 L 396.15 -62.65 L 420.99 -11.32 Q 422.56 -8.19 422.56 -6.62 L 422.56 -6.62 Q 422.56 -3.31 417.22 -0.64 L 417.22 -0.64 Q 414.09 0.92 412.3 0.92 Q 410.5 0.92 409.35 0.09 Q 408.2 -0.74 407.7 -1.66 Q 407.19 -2.58 406.27 -4.42 L 406.27 -4.42 L 401.49 -14.35 L 376 -14.35 L 371.22 -4.42 Q 370.3 -2.58 369.79 -1.75 Q 369.29 -0.92 368.14 -0.05 Q 366.99 0.83 365.19 0.83 Q 363.4 0.83 360.27 -0.74 L 360.27 -0.74 Q 354.94 -3.31 354.94 -6.62 L 354.94 -6.62 Q 354.94 -8.19 356.5 -11.32 L 356.5 -11.32 L 381.34 -62.74 Q 382.35 -64.86 384.42 -66.15 Q 386.49 -67.44 388.79 -67.44 L 388.79 -67.44 Q 393.76 -67.44 396.15 -62.65 Z M 394.86 -27.97 L 388.7 -40.57 L 382.63 -27.97 L 394.86 -27.97 Z M 452.73 -8.46 L 451.9 -9.48 Q 449.51 -12.42 449.51 -14.77 Q 449.51 -17.11 453.47 -20.98 L 453.47 -20.98 Q 455.77 -23.18 458.34 -23.18 Q 460.92 -23.18 465.52 -18.58 L 465.52 -18.58 Q 466.81 -17.02 469.2 -15.59 Q 471.59 -14.17 473.62 -14.17 L 473.62 -14.17 Q 482.17 -14.17 482.17 -21.16 L 482.17 -21.16 Q 482.17 -23.28 479.83 -24.7 Q 477.48 -26.13 473.98 -26.77 Q 470.49 -27.42 466.44 -28.84 Q 462.39 -30.27 458.9 -32.2 Q 455.4 -34.13 453.05 -38.32 Q 450.71 -42.5 450.71 -48.39 L 450.71 -48.39 Q 450.71 -56.49 456.73 -62.51 Q 462.76 -68.54 473.16 -68.54 L 473.16 -68.54 Q 478.68 -68.54 483.23 -67.11 Q 487.78 -65.69 489.53 -64.22 L 489.53 -64.22 L 491.83 -62.47 Q 494.68 -59.8 494.68 -57.96 Q 494.68 -56.12 492.48 -52.9 L 492.48 -52.9 Q 489.35 -48.3 486.04 -48.3 L 486.04 -48.3 Q 484.1 -48.3 481.25 -50.14 L 481.25 -50.14 Q 480.98 -50.32 480.19 -51.06 Q 479.41 -51.8 478.77 -52.26 L 478.77 -52.26 Q 476.84 -53.45 473.85 -53.45 Q 470.86 -53.45 468.88 -52.03 Q 466.9 -50.6 466.9 -48.07 Q 466.9 -45.54 469.25 -43.98 Q 471.59 -42.41 475.09 -41.86 Q 478.58 -41.31 482.72 -40.16 Q 486.86 -39.01 490.36 -37.35 Q 493.86 -35.7 496.2 -31.6 Q 498.55 -27.51 498.55 -21.53 Q 498.55 -15.55 496.16 -10.99 Q 493.76 -6.44 489.9 -3.96 L 489.9 -3.96 Q 482.45 0.92 473.98 0.92 L 473.98 0.92 Q 469.66 0.92 465.8 -0.14 Q 461.93 -1.2 459.54 -2.76 L 459.54 -2.76 Q 454.66 -5.7 452.73 -8.46 L 452.73 -8.46 Z M 527.8 -8.19 L 527.8 -59.34 Q 527.8 -61.46 527.94 -62.51 Q 528.08 -63.57 528.82 -64.95 L 528.82 -64.95 Q 530.1 -67.44 535.99 -67.44 L 535.99 -67.44 Q 542.43 -67.44 543.63 -64.03 L 543.63 -64.03 Q 544.09 -62.47 544.09 -59.25 L 544.09 -59.25 L 544.09 -8.1 Q 544.09 -5.89 543.95 -4.88 Q 543.81 -3.86 543.08 -2.48 L 543.08 -2.48 Q 541.79 0 535.9 0 L 535.9 0 Q 529.46 0 528.36 -3.5 L 528.36 -3.5 Q 527.8 -4.97 527.8 -8.19 L 527.8 -8.19 Z" stroke-linecap="round" />
</g>
</svg>