<?xml version="1.0" encoding="UTF-8" standalone="no"?> <svg id="Capa_1" enable-background="new 0 0 512 512" height="512" viewBox="0 0 512 512" width="512" xmlns="http://www.w3.org/2000/svg"><path d="m241 497v-106h-241v106c0 8.291 6.709 15 15 15h211c8.291 0 15-6.709 15-15z"/><path d="m226 301h-45v60h60v-45c0-8.291-6.709-15-15-15z"/><path d="m90 15v46h242v-61h-227c-8.291 0-15 6.709-15 15z"/><path d="m362 61h60v-46c0-8.291-6.709-15-15-15h-45z"/><path d="m286 301c-8.291 0-15 6.709-15 15v45h151v-60z"/><path d="m271 497c0 8.291 6.709 15 15 15h211c8.291 0 15-6.709 15-15v-106h-241z"/><path d="m497 301h-15v-135c0-8.291-6.709-15-15-15h-45v-60h-332v60h-45c-8.291 0-15 6.709-15 15v135h-15c-8.291 0-15 6.709-15 15v45h151v-60h-91v-120h30v75c0 8.291 6.709 15 15 15h302c8.291 0 15-6.709 15-15v-75h30v180h60v-45c0-8.291-6.709-15-15-15zm-180-75h-121c-8.291 0-15-6.709-15-15s6.709-15 15-15h121c8.291 0 15 6.709 15 15s-6.709 15-15 15zm0-60h-121c-8.291 0-15-6.709-15-15s6.709-15 15-15h121c8.291 0 15 6.709 15 15s-6.709 15-15 15z"/></svg>