<?xml version="1.0" encoding="UTF-8" standalone="no"?> <svg id="Capa_1" enable-background="new 0 0 512 512" height="512" viewBox="0 0 512 512" width="512" xmlns="http://www.w3.org/2000/svg"><path d="m272 0h-257c-8.291 0-15 6.709-15 15v46h272z"/><path d="m362 15c0-8.291-6.709-15-15-15h-45v61h60z"/><path d="m139.763 271h84.474c-6.213-17.422-22.707-30-42.237-30s-36.024 12.578-42.237 30z"/><path d="m15 271h93.518c6.969-34.191 37.266-60 73.482-60-24.814 0-45-20.186-45-45s20.186-45 45-45 45 20.186 45 45-20.186 45-45 45c36.216 0 66.513 25.809 73.482 60h91.518c8.291 0 15-6.709 15-15v-165h-362v165c0 8.291 6.709 15 15 15z"/><circle cx="182" cy="166" r="15"/><path d="m497 61h-60c-8.291 0-15 6.709-15 15s6.709 15 15 15h45v75c0 8.291 6.709 15 15 15s15-6.709 15-15v-90c0-8.291-6.709-15-15-15z"/><path d="m15 452h62c8.291 0 15-6.709 15-15s-6.709-15-15-15h-47v-75c0-8.291-6.709-16-15-16s-15 7.709-15 16v90c0 8.291 6.709 15 15 15z"/><path d="m497 211h-30v60h45v-45c0-8.291-6.709-15-15-15z"/><path d="m332 482c-19.53 0-36.024 12.578-42.237 30h84.474c-6.213-17.422-22.707-30-42.237-30z"/><path d="m152 497c0 8.291 6.709 15 15 15h91.518c6.969-34.191 37.266-60 73.482-60-24.814 0-45-20.186-45-45s20.186-45 45-45 45 20.186 45 45-20.186 45-45 45c36.216 0 66.513 25.809 73.482 60h91.518c8.291 0 15-6.709 15-15v-196h-360z"/><circle cx="332" cy="407" r="15"/><path d="m392 211v45c0 5.284-1.082 10.285-2.763 15h47.763v-60z"/></svg>